<svg width="20" height="20" viewBox="0 0 20 20" fill="none" xmlns="http://www.w3.org/2000/svg">
<path d="M2.5 8.33366H17.5M5.83333 12.5003H6.66667M10 12.5003H10.8333M5 15.8337H15C15.663 15.8337 16.2989 15.5703 16.7678 15.1014C17.2366 14.6326 17.5 13.9967 17.5 13.3337V6.66699C17.5 6.00395 17.2366 5.36807 16.7678 4.89923C16.2989 4.43038 15.663 4.16699 15 4.16699H5C4.33696 4.16699 3.70107 4.43038 3.23223 4.89923C2.76339 5.36807 2.5 6.00395 2.5 6.66699V13.3337C2.5 13.9967 2.76339 14.6326 3.23223 15.1014C3.70107 15.5703 4.33696 15.8337 5 15.8337Z" stroke="#717171" strokeWidth="1.5" strokeLinecap="round" strokeLinejoin="round"/>
</svg>
