<?xml version="1.0" encoding="utf-8"?>
<svg xmlns="http://www.w3.org/2000/svg" xmlns:xlink="http://www.w3.org/1999/xlink"
    style="margin: auto;display: block; shape-rendering: auto;"
    width="217px" height="217px" viewBox="0 0 100 100" preserveAspectRatio="xMidYMid">
    <g transform="translate(50 50)">
        <g>
            <animateTransform attributeName="transform" type="rotate" values="0;36" keyTimes="0;1"
                dur="0.3759398496240602s" repeatCount="indefinite"></animateTransform>
            <path
                d="M28.473672049807696 -5.5 L35.473672049807696 -5.5 L35.473672049807696 5.5 L28.473672049807696 5.5 A29 29 0 0 1 26.268503468161974 12.286811040427144 L26.268503468161974 12.286811040427144 L31.931622428786607 16.401307806474456 L25.4659846535694 25.30049474459888 L19.802865692944767 21.18599797855157 A29 29 0 0 1 14.029659395272867 25.38047787675858 L14.029659395272867 25.38047787675858 L16.1927783558975 32.03787349082465 L5.731156676650812 35.437060428949074 L3.568037716026179 28.779664814883002 A29 29 0 0 1 -3.5680377160261756 28.779664814883002 L-3.5680377160261756 28.779664814883002 L-5.731156676650807 35.43706042894908 L-16.1927783558975 32.03787349082465 L-14.029659395272866 25.38047787675858 A29 29 0 0 1 -19.802865692944767 21.18599797855157 L-19.802865692944767 21.18599797855157 L-25.4659846535694 25.30049474459888 L-31.931622428786604 16.40130780647446 L-26.26850346816197 12.286811040427148 A29 29 0 0 1 -28.473672049807696 5.5000000000000036 L-28.473672049807696 5.5000000000000036 L-35.473672049807696 5.500000000000004 L-35.473672049807696 -5.4999999999999964 L-28.473672049807696 -5.499999999999997 A29 29 0 0 1 -26.268503468161974 -12.286811040427141 L-26.268503468161974 -12.286811040427141 L-31.931622428786607 -16.401307806474453 L-25.465984653569404 -25.300494744598875 L-19.80286569294477 -21.185997978551566 A29 29 0 0 1 -14.02965939527286 -25.380477876758583 L-14.02965939527286 -25.380477876758583 L-16.192778355897495 -32.03787349082466 L-5.731156676650828 -35.437060428949074 L-3.568037716026195 -28.779664814883002 A29 29 0 0 1 3.5680377160261845 -28.779664814883002 L3.5680377160261845 -28.779664814883002 L5.731156676650815 -35.43706042894908 L16.19277835589748 -32.037873490824666 L14.029659395272851 -25.38047787675859 A29 29 0 0 1 19.80286569294477 -21.185997978551566 L19.80286569294477 -21.185997978551566 L25.4659846535694 -25.30049474459888 L31.931622428786593 -16.401307806474478 L26.268503468161963 -12.286811040427164 A29 29 0 0 1 28.473672049807696 -5.499999999999995 M0 -18A18 18 0 1 0 0 18 A18 18 0 1 0 0 -18"
                fill="#93dbe9"></path>
        </g>
    </g>
    <!-- [ldio] generated by https://loading.io/ -->
</svg>