<svg width="20" height="20" viewBox="0 0 20 20" fill="none" xmlns="http://www.w3.org/2000/svg">
<path d="M13.3333 5.83333C13.3333 6.71739 12.9821 7.56523 12.357 8.19036C11.7319 8.81548 10.8841 9.16667 10 9.16667C9.11595 9.16667 8.2681 8.81548 7.64298 8.19036C7.01786 7.56523 6.66667 6.71739 6.66667 5.83333C6.66667 4.94928 7.01786 4.10143 7.64298 3.47631C8.2681 2.85119 9.11595 2.5 10 2.5C10.8841 2.5 11.7319 2.85119 12.357 3.47631C12.9821 4.10143 13.3333 4.94928 13.3333 5.83333ZM10 11.6667C8.45291 11.6667 6.96918 12.2812 5.87522 13.3752C4.78125 14.4692 4.16667 15.9529 4.16667 17.5H15.8333C15.8333 15.9529 15.2188 14.4692 14.1248 13.3752C13.0308 12.2812 11.5471 11.6667 10 11.6667Z" stroke="#717171" strokeWidth="1.5" strokeLinecap="round" strokeLinejoin="round"/>
</svg>
